<svg xmlns="http://www.w3.org/2000/svg" version="1.1" xmlns:xlink="http://www.w3.org/1999/xlink" xmlns:svgjs="http://svgjs.dev/svgjs" width="100%" height="100%" viewBox="0 0 1000 600"><rect width="1000" height="600" x="0" y="0" fill="#e4efea"/><g><circle r="166.66666666666666" cx="371.3576304117838" cy="393.57990206818624" fill="#7d141d" transform="matrix(0.610676498617333,0,0,0.6106764986173329,0,59.6499930149089)"/><path d="M352.2032382733108 468.57991393406405L331.5219242765939 468.57991393406405L331.5219242765939 318.5799157795132L411.19336050663645 318.5799157795132L408.804729211694 335.1189198090515L352.2032382733108 335.1189198090515L352.2032382733108 386.27795969566705L401.1852977392194 386.27795969566705L401.1852977392194 402.60531285096994L352.2032382733108 402.60531285096994L352.2032382733108 468.57991393406405Z " fill="#f4efea" transform="matrix(0.610676498617333,0,0,0.6106764986173329,0,59.6499930149089)"/><path d="M659.0415187799853 351.4397255956376Q674.7900036014629 351.4397255956376 682.1018001257205 362.66701079116916Q689.4135966499781 373.87266345260525 689.4135966499781 394.2721431046019L689.4135966499781 394.2721431046019Q689.4135966499781 413.58999605182674 681.0201734209487 425.4229922020305Q672.6051176578238 437.2559883522343 657.1811208477776 437.2559883522343L657.1811208477776 437.2559883522343Q643.4660942312709 437.2559883522343 635.6783819569138 427.91073362300574L635.6783819569138 427.91073362300574L635.6783819569138 466.8492949947914L621.3576443857347 468.5798977224264L621.3576443857347 353.32175606194056L633.6665562860381 353.32175606194056L634.74818299081 364.37598098470863Q639.2693826167562 358.14581116522294 645.6509801749099 354.7927683804303Q652.0325777330637 351.4397255956376 659.0415187799853 351.4397255956376L659.0415187799853 351.4397255956376ZM653.7631804606987 425.5744199406986Q674.0112323740273 425.5744199406986 674.0112323740273 394.2721431046019L674.0112323740273 394.2721431046019Q674.0112323740273 362.81843852983724 655.4721506542381 362.81843852983724L655.4721506542381 362.81843852983724Q649.3934085734205 362.81843852983724 644.4179257314701 366.38780665558426Q639.4208103554242 369.9788073154267 635.6783819569138 375.5816336461448L635.6783819569138 375.5816336461448L635.6783819569138 415.6234542567978Q638.7934668666566 420.4475093600801 643.4660942312709 423.02178091743707Q648.1387215958852 425.5744199406986 653.7631804606987 425.5744199406986L653.7631804606987 425.5744199406986ZM752.4940660722709 351.4397255956376Q763.7213512678026 351.4397255956376 770.0164186895745 358.14581116522294Q776.333118645442 364.8302642007128 776.333118645442 376.51183261224855L776.333118645442 376.51183261224855L776.333118645442 435.39559042002674L762.012381074263 435.39559042002674L762.012381074263 378.54529081721955Q762.012381074263 369.82737957675863 758.6593382894704 366.2363789169162Q755.3062955046777 362.66701079116916 748.9246979465239 362.66701079116916L748.9246979465239 362.66701079116916Q742.5431003883701 362.66701079116916 737.5459850123243 366.38780665558426Q732.5705021703739 370.1302350540948 728.2007302830957 376.98774836234816L728.2007302830957 376.98774836234816L728.2007302830957 435.39559042002674L713.8799927119168 435.39559042002674L713.8799927119168 320.44030423687707L728.2007302830957 318.8827617820056L728.2007302830957 364.6788364620448Q737.8704730237558 351.4397255956376 752.4940660722709 351.4397255956376L752.4940660722709 351.4397255956376ZM860.4404112084992 416.22916521147Q860.4404112084992 421.2262805875158 862.1493814020387 423.6274918721093Q863.8583515955781 426.0503356907982 867.2979245167526 427.3050226683335L867.2979245167526 427.3050226683335L864.0314118683416 437.2559883522343Q857.6281817760924 436.4772171247986 853.7343256389139 433.68662022648726Q849.8404695017352 430.8743907940805 847.9800715695277 424.96870898602634L847.9800715695277 424.96870898602634Q839.716443545071 437.2559883522343 823.5353080416845 437.2559883522343L823.5353080416845 437.2559883522343Q811.3778238800492 437.2559883522343 804.3688828331277 430.42010757807634Q797.3599417862063 423.56259426982297 797.3599417862063 412.5083693470549L797.3599417862063 412.5083693470549Q797.3599417862063 399.4206862193158 806.7917266518166 392.4117451723944Q816.2018789833315 385.4028041254729 833.4862737255853 385.4028041254729L833.4862737255853 385.4028041254729L846.1196736373201 385.4028041254729L846.1196736373201 379.3240620446553Q846.1196736373201 370.6061508041944 841.9013294887102 366.86372240568386Q837.7046178741954 363.12129400717333 828.9867066337345 363.12129400717333L828.9867066337345 363.12129400717333Q819.944307381842 363.12129400717333 806.8566242541029 367.4910658944515L806.8566242541029 367.4910658944515L803.2872561283559 357.04255192635566Q818.5381926656387 351.4397255956376 831.6258757933778 351.4397255956376L831.6258757933778 351.4397255956376Q846.1196736373201 351.4397255956376 853.2800424229097 358.53519677894076Q860.4404112084992 365.60903542814856 860.4404112084992 378.6967185558876L860.4404112084992 378.6967185558876L860.4404112084992 416.22916521147ZM826.8018206900954 426.5262514408978Q839.1107325903988 426.5262514408978 846.1196736373201 413.74142379049476L846.1196736373201 413.74142379049476L846.1196736373201 394.8994865933696L835.3683041918882 394.8994865933696Q812.6325108575845 394.8994865933696 812.6325108575845 411.7295981196192L812.6325108575845 411.7295981196192Q812.6325108575845 419.04139464387674 816.2018789833315 422.78382304238727Q819.792879643174 426.5262514408978 826.8018206900954 426.5262514408978L826.8018206900954 426.5262514408978ZM925.5543388357632 351.4397255956376Q929.9024781889459 351.4397255956376 933.6449065874564 352.36992456174136L933.6449065874564 352.36992456174136L931.0057374278131 366.38780665558426Q927.2633090293026 365.4576076894805 923.8237361081283 365.4576076894805L923.8237361081283 365.4576076894805Q916.2090841065345 365.4576076894805 911.5364567419202 371.06043402019856Q906.8638293773059 376.684892885012 904.2030276835673 388.51788903521583L904.2030276835673 388.51788903521583L904.2030276835673 435.39559042002674L889.8822901123883 435.39559042002674L889.8822901123883 353.32175606194056L902.1912020126917 353.32175606194056L903.5756841947997 369.9788073154267Q906.8638293773059 360.7849803248662 912.4666557080241 356.1123529602519Q918.0694820387421 351.4397255956376 925.5543388357632 351.4397255956376L925.5543388357632 351.4397255956376ZM1032.3974247331244 351.4397255956376Q1042.5214506897887 351.4397255956376 1048.600192770606 358.21070876750923Q1054.6573023173282 365.0033244734763 1054.6573023173282 376.51183261224855L1054.6573023173282 376.51183261224855L1054.6573023173282 435.39559042002674L1040.3365647461496 435.39559042002674L1040.3365647461496 378.54529081721955Q1040.3365647461496 362.66701079116916 1028.806424073282 362.66701079116916L1028.806424073282 362.66701079116916Q1022.7276819924639 362.66701079116916 1018.5309703779492 366.1714813146299Q1014.3342587634346 369.6759518380906 1009.4885711260567 377.1391761010162L1009.4885711260567 377.1391761010162L1009.4885711260567 435.39559042002674L995.1678335548779 435.39559042002674L995.1678335548779 378.54529081721955Q995.1678335548779 362.66701079116916 983.6376928820102 362.66701079116916L983.6376928820102 362.66701079116916Q977.4075230625245 362.66701079116916 973.2108114480098 366.2363789169162Q968.9924672993997 369.82737957675863 964.3198399347854 377.1391761010162L964.3198399347854 377.1391761010162L964.3198399347854 435.39559042002674L949.9991023636064 435.39559042002674L949.9991023636064 353.32175606194056L962.3080142639097 353.32175606194056L963.5410687073497 365.3061799508124Q972.7348956979102 351.4397255956376 987.2286935418526 351.4397255956376L987.2286935418526 351.4397255956376Q994.8649780775418 351.4397255956376 1000.2298465332101 355.3335817328162Q1005.5947149888783 359.22743786999473 1007.9310286711855 366.2363789169162L1007.9310286711855 366.2363789169162Q1012.7767163085632 359.0760101313267 1018.6175005143311 355.2686841305299Q1024.458284720099 351.4397255956376 1032.3974247331244 351.4397255956376L1032.3974247331244 351.4397255956376ZM1138.7645948803856 416.22916521147Q1138.7645948803856 421.2262805875158 1140.4951976080206 423.6274918721093Q1142.2041678015598 426.0503356907982 1145.6221081886388 427.3050226683335L1145.6221081886388 427.3050226683335L1142.355595540228 437.2559883522343Q1135.9739979820743 436.4772171247986 1132.0801418448955 433.68662022648726Q1128.1862857077172 430.8743907940805 1126.304255241414 424.96870898602634L1126.304255241414 424.96870898602634Q1118.0622597510528 437.2559883522343 1101.859491713571 437.2559883522343L1101.859491713571 437.2559883522343Q1089.7020075519354 437.2559883522343 1082.693066505014 430.42010757807634Q1075.6841254580927 423.56259426982297 1075.6841254580927 412.5083693470549L1075.6841254580927 412.5083693470549Q1075.6841254580927 399.4206862193158 1085.1159103237028 392.4117451723944Q1094.5476951893133 385.4028041254729 1111.8320899315672 385.4028041254729L1111.8320899315672 385.4028041254729L1124.4438573092066 385.4028041254729L1124.4438573092066 379.3240620446553Q1124.4438573092066 370.6061508041944 1120.2471456946919 366.86372240568386Q1116.028801546082 363.12129400717333 1107.310890305621 363.12129400717333L1107.310890305621 363.12129400717333Q1098.2684910537287 363.12129400717333 1085.2024404600847 367.4910658944515L1085.2024404600847 367.4910658944515L1081.6114398002424 357.04255192635566Q1096.8840088716206 351.4397255956376 1109.950059465264 351.4397255956376L1109.950059465264 351.4397255956376Q1124.4438573092066 351.4397255956376 1131.604226094796 358.53519677894076Q1138.7645948803856 365.60903542814856 1138.7645948803856 378.6967185558876L1138.7645948803856 378.6967185558876L1138.7645948803856 416.22916521147ZM1105.1260043619818 426.5262514408978Q1117.4349162622852 426.5262514408978 1124.4438573092066 413.74142379049476L1124.4438573092066 413.74142379049476L1124.4438573092066 394.8994865933696L1113.6924878637747 394.8994865933696Q1090.956694529471 394.8994865933696 1090.956694529471 411.7295981196192L1090.956694529471 411.7295981196192Q1090.956694529471 419.04139464387674 1094.5476951893133 422.78382304238727Q1098.1170633150605 426.5262514408978 1105.1260043619818 426.5262514408978L1105.1260043619818 426.5262514408978ZM1248.2684824714852 353.32175606194056L1261.983509087992 353.32175606194056L1243.2929996295347 435.39559042002674L1223.8237189436418 435.39559042002674L1209.4813488383675 366.2363789169162L1194.684695517089 435.39559042002674L1175.6913305812955 435.39559042002674L1156.5249053727389 353.32175606194056L1170.8672754780132 353.32175606194056L1185.663928799292 425.4229922020305L1201.8450643026786 353.32175606194056L1217.8964046014926 353.32175606194056L1233.3204014115386 425.4229922020305L1248.2684824714852 353.32175606194056ZM1341.8724575024394 391.9358294222948Q1341.8724575024394 395.5268300821372 1341.569602025103 399.26925848064775L1341.569602025103 399.26925848064775L1289.240502048242 399.26925848064775Q1290.170701014346 412.81122482439105 1296.0763828223999 419.1928223825448Q1302.0036971645495 425.5744199406986 1311.3489518937781 425.5744199406986L1311.3489518937781 425.5744199406986Q1317.2762662359278 425.5744199406986 1322.2517490778782 423.8654497471591Q1327.2272319198287 422.1564795536196 1332.6786305118785 418.41405115510906L1332.6786305118785 418.41405115510906L1338.9088003313645 426.9805346569019Q1325.8427497377206 437.2559883522343 1310.2673251890064 437.2559883522343L1310.2673251890064 437.2559883522343Q1293.1343581854208 437.2559883522343 1283.5511455811425 426.0503356907982Q1273.9679329768637 414.84468302936205 1273.9679329768637 395.2023420707057L1273.9679329768637 395.2023420707057Q1273.9679329768637 382.43914695439815 1278.0997469890922 372.55307887278366Q1282.2315610013206 362.66701079116916 1289.9327431392962 357.04255192635566Q1297.6339252772714 351.4397255956376 1308.0824392453674 351.4397255956376L1308.0824392453674 351.4397255956376Q1324.4366350215173 351.4397255956376 1333.1545462619783 362.19109504106956Q1341.8724575024394 372.94246448650154 1341.8724575024394 391.9358294222948L1341.8724575024394 391.9358294222948ZM1327.703147669928 388.66931677388385L1327.703147669928 387.7391178077801Q1327.703147669928 375.5816336461448 1322.8790925666458 369.200036087991Q1318.0550374633635 362.81843852983724 1308.3852947227033 362.81843852983724L1308.3852947227033 362.81843852983724Q1290.7980445031135 362.81843852983724 1289.240502048242 388.66931677388385L1289.240502048242 388.66931677388385L1327.703147669928 388.66931677388385ZM1402.3137577650887 351.4397255956376Q1416.3316398589318 351.4397255956376 1424.573635349293 362.73190839345546Q1432.8372633737495 374.0240911912733 1432.8372633737495 394.2721431046019L1432.8372633737495 394.2721431046019Q1432.8372633737495 407.0569707550049 1428.9434072365711 416.7916110979513Q1425.0495510993928 426.5262514408978 1417.737754575135 431.891119896566Q1410.4043255167821 437.2559883522343 1400.6047875715494 437.2559883522343L1400.6047875715494 437.2559883522343Q1387.6685321824784 437.2559883522343 1378.7991932033492 426.3531911681343L1378.7991932033492 426.3531911681343L1377.3930784871459 435.39559042002674L1364.7813111095065 435.39559042002674L1364.7813111095065 320.288876498209L1379.1020486806856 318.5799063046695L1379.1020486806856 363.59720975727294Q1387.9713876598144 351.4397255956376 1402.3137577650887 351.4397255956376L1402.3137577650887 351.4397255956376ZM1397.1652146503748 425.8989079521301Q1406.6618971182716 425.8989079521301 1412.0483981080351 418.17609328005926Q1417.4132665637035 410.4749111420839 1417.4132665637035 394.2721431046019L1417.4132665637035 394.2721431046019Q1417.4132665637035 377.6150918511158 1412.437783721753 370.2167651904765Q1407.4406683457073 362.81843852983724 1398.2684738892422 362.81843852983724L1398.2684738892422 362.81843852983724Q1387.365676705142 362.81843852983724 1379.1020486806856 375.5816336461448L1379.1020486806856 375.5816336461448L1379.1020486806856 414.84468302936205Q1382.3685613290963 419.9715936099805 1387.1277188300924 422.9352507810553Q1391.8652437969927 425.8989079521301 1397.1652146503748 425.8989079521301L1397.1652146503748 425.8989079521301Z " fill="#7d141d" transform="matrix(0.610676498617333,0,0,0.6106764986173329,0,59.6499930149089)"/></g></svg>